<?xml version="1.0" standalone="no"?>
<!DOCTYPE svg PUBLIC "-//W3C//DTD SVG 1.1//EN" "http://www.w3.org/Graphics/SVG/1.1/DTD/svg11.dtd">
<svg xmlns="http://www.w3.org/2000/svg">
<metadata>Generated by Fontastic.me</metadata>
<defs>
<font id="jimmbo-icons" horiz-adv-x="512">
<font-face font-family="jimmbo-icons" units-per-em="512" ascent="480" descent="-32"/>
<missing-glyph horiz-adv-x="512" />

<glyph unicode="&#49;" d="M343 51c-5 0-10 2-14 7l-167 181c-7 7-7 19 0 26l167 181c7 8 20 9 28 1 8-7 8-20 1-27l-155-168 155-168c7-8 7-20-1-28-4-3-9-5-14-5z"/>
<glyph unicode="&#98;" d="M459 272l-179 0 0 179c0 11-9 20-20 20-11 0-20-9-20-20l0-179-179 0c-11 0-20-9-20-20 0-11 9-20 20-20l179 0 0-179c0-11 9-20 20-20 11 0 20 9 20 20l0 179 179 0c11 0 20 9 20 20 0 11-9 20-20 20z"/>
<glyph unicode="&#43;" d="M459 262l-189 0 0 189c0 6-4 10-10 10-5 0-10-4-10-10l0-189-189 0c-6 0-10-5-10-10 0-5 4-10 10-10l189 0 0-189c0-6 5-10 10-10 5 0 10 4 10 10l0 189 189 0c6 0 10 5 10 10 0 5-4 10-10 10z"/>
<glyph unicode="&#60;" d="M344 61c-3 0-6 1-8 3l-167 181c-3 4-3 10 0 14l167 181c4 4 10 4 14 0 4-4 4-10 1-14l-161-174 161-174c3-4 3-11-1-14-2-2-4-3-6-3z"/>
<glyph unicode="&#62;" d="M177 61c-3 0-5 1-7 3-4 3-4 10-1 14l161 174-161 174c-3 4-3 10 1 14 4 4 10 4 14 0l167-181c3-4 3-10 0-14l-167-181c-2-2-5-3-7-3z"/>
<glyph unicode="&#102;" d="M480 366l-72 0 0 72-21 0 0-72-72 0 0-21 72 0 0-72 21 0 0 72 72 0z m-248-142c-10 8-30 26-30 36 0 13 3 19 22 33 19 15 32 38 32 63 0 29-12 54-37 68l37 0 26 14c0 0-87 0-116 0-52 0-101-38-101-84 0-46 36-84 88-84 4 0 8 0 11 1-3-7-6-14-6-22 0-13 7-23 16-32-7 0-13 0-20 0-64 0-114-41-114-84 0-41 54-68 119-68 73 0 114 42 114 84 0 34-10 54-41 75z m-62 58c-30 1-58 34-63 73-5 39 15 69 44 68 30-1 59-32 64-71 5-40-15-71-45-70z m-12-198c-44 0-76 28-76 62 0 33 40 61 84 60 10 0 20-2 29-4 24-17 41-27 46-46 1-4 2-8 2-12 0-34-22-60-85-60z"/>
<glyph unicode="&#103;" d="M454 372c-14-6-29-10-46-12 17 10 30 25 36 44-16-9-33-16-51-19-15 15-35 25-58 25-44 0-80-36-80-80 0-6 1-12 2-18-66 3-125 35-164 83-7-12-11-25-11-40 0-27 14-52 36-66-13 0-26 4-37 10 0-1 0-1 0-1 0-39 28-71 64-78-6-2-13-3-21-3-5 0-10 0-15 1 11-31 40-54 75-55-27-22-62-34-99-34-7 0-13 0-19 1 35-23 77-36 122-36 147 0 227 122 227 227 0 3 0 7 0 10 15 11 29 25 39 41z"/>
<glyph unicode="&#104;" d="M280 304l0 60c0 20 5 39 40 39 17 0 33 0 42 0l1 54c-9 1-26 2-47 2-76 0-103-44-103-86l0-69-56 0 0-58 56 0 0-201 67 0 0 201 80 0 3 58z"/>
<glyph unicode="&#105;" d="M473 286c-2 4-5 6-9 6l-48-4c-7 36-24 69-51 96-35 35-82 55-132 55-103 0-187-84-187-187 0-103 84-187 187-187 54 0 105 23 141 64 4 4 3 11-1 14-4 4-10 3-14-1-32-36-78-57-126-57-92 0-167 75-167 167 0 92 75 167 167 167 44 0 86-17 118-49 24-23 39-52 46-84l-56-5c-4 0-7-3-8-7-2-4 0-8 3-10l66-56c2-2 4-2 7-2 0 0 0 0 0 0 3 0 5 1 7 3l56 67c3 3 3 7 1 10z"/>
<glyph unicode="&#106;" d="M177 51c-5 0-10 2-14 6-8 7-8 19-1 27l155 168-155 168c-7 7-7 20 1 27 8 8 21 7 28-1l167-181c7-7 7-19 0-26l-167-181c-4-5-9-7-14-7z"/>
<glyph unicode="&#107;" d="M473 399c0 8-3 15-9 21l-33 33c-12 11-31 11-42 0l-29-29c0 0-1 0-1 0l-24-24c0 0 0 0 0 0l-250-246c0 0 0 0 0 0-2-1-3-2-3-4l-34-94c-1-4 0-8 2-10 2-2 5-3 7-3 1 0 2 0 3 0l96 33c2 1 4 3 5 5l249 244 25 25c0 0 0 0 0 0l29 28c6 6 9 13 9 21z m-400-330l22 60 40-39z m80 32l-47 46 236 232 47-47z m297 291l-42-41c0 0 0 0 0 0l-5-5-47 47 4 4c0 0 0 0 0 0l43 42c3 3 10 3 14 0l33-33c2-2 3-4 3-7 0-2-1-5-3-7z"/>
<glyph unicode="&#108;" d="M419 399l-106 0 0 45c0 6-5 10-10 10l-86 0c-5 0-10-4-10-10l0-45-105 0c-6 0-10-5-10-10l0-60c0-6 4-10 10-10l16 0 25-260c0-5 4-9 9-9l216 0c5 0 9 4 9 9l25 260 17 0c5 0 9 4 9 10l0 60c0 5-4 10-9 10z m-192 35l66 0 0-35-66 0z m-19-364l-47 0-23 249 70 0z m85 0l-66 0 0 249 66 0z m66 0l-47 0 0 249 70 0z m50 268l-298 0 0 41 298 0z"/>
<glyph unicode="&#109;" d="M445 88l-95 95c85 91 111 186 81 216-2 2-5 5-7 7-13 14-30 31-51 31-16 0-31-9-46-28-41-50-26-72-1-96l4-4c0-1 10-12-41-65l-141 140c-3 4-10 4-14 0-3-3-3-10 0-13l141-141c-57-57-71-53-74-50l-4 4c-12 12-24 24-43 24-15 0-32-8-53-25-19-15-28-29-28-45-1-22 16-39 31-52 2-3 4-5 6-7 8-8 21-12 37-12 40 0 112 27 189 102l95-95c2-2 4-3 7-3 2 0 5 1 7 3 4 4 4 10 0 14z m-101 235l-4 4c-20 19-30 29 2 70 11 13 22 20 31 20 13 0 26-13 37-24 2-3 4-5 7-8 17-17 3-98-81-188l-33 33c45 47 58 76 41 93z m-197-237c-10 0-18 3-23 7-2 2-4 5-7 7-12 11-25 24-25 37 1 10 8 20 21 31 18 14 31 21 41 21 10 0 17-7 29-19l4-4c4-5 11-7 17-7 12 0 34 6 85 57l33-33c-68-67-136-97-175-97z"/>
<glyph unicode="&#110;" d="M433 399c-2 2-4 5-7 7-13 14-29 31-51 31-16 0-31-9-46-28-40-50-26-72-1-96l4-4c1-1 12-13-52-77-48-48-67-53-73-53-2 0-3 0-4 1l-4 4c-12 12-24 24-43 24-14 0-31-8-53-25-18-15-28-29-28-45-1-22 17-39 31-52 2-3 4-5 7-7 8-8 21-12 37-12 39 0 113 27 190 104 44 44 77 92 94 136 15 42 15 76-1 92z m-18-85c-16-41-47-87-88-129-69-68-139-99-177-99-11 0-19 3-23 7-3 2-5 5-8 7-12 11-25 24-24 37 0 10 7 20 20 31 18 14 31 21 41 21 10 0 18-7 29-19l4-4c5-5 11-7 18-7 12 0 34 6 87 59 54 54 70 87 52 105l-4 4c-20 19-30 29 2 70 12 13 22 20 31 20 13 0 26-13 37-24 2-3 5-5 7-8 8-8 10-33-4-71z"/>
<glyph unicode="&#111;" d="M314 161c-49 17-57 30-57 55 0 5 1 6 5 10 5 6 12 14 16 35 0 0 1 2 1 2 9 4 15 11 17 32 0 10-3 16-6 20 1 7 3 19 4 30 1 13-3 33-18 50-11 12-31 26-68 26-36 0-56-14-67-26-15-17-19-37-18-50 1-11 3-23 4-30-3-4-6-10-6-20 1-21 7-28 16-32l2-2c4-21 11-29 16-35 3-4 5-5 5-10 0-25-8-38-57-56-85-30-85-49-85-55l0-41c0-5 4-8 9-8 5 0 9 3 9 8l0 41c1 4 15 18 73 39 45 17 68 32 68 72 0 11-5 17-9 22-4 4-9 10-12 26-2 10-8 13-11 15-3 1-6 2-7 16 0 7 3 9 2 9 4 1 6 5 5 9 0 0-3 19-5 34 0 6 2 23 14 36 12 13 30 20 54 20 24 0 43-7 55-20 12-13 14-30 13-36-1-15-5-34-5-34 0-4 1-7 5-9 0 0 2-2 2-8-1-15-4-16-6-17-4-2-10-5-12-15-3-16-7-22-12-26-4-5-9-11-9-22 0-40 23-55 69-72 57-21 72-35 73-39l0-41c0-5 4-8 9-8 5 0 9 3 9 8l0 41c0 6 0 25-85 56z m172 170l-55 0 0 55c0 5-4 9-9 9-5 0-9-4-9-9l0-55-55 0c-4 0-8-4-8-9 0-4 4-8 8-8l55 0 0-55c0-5 4-9 9-9 5 0 9 4 9 9l0 55 55 0c5 0 9 3 9 8 0 5-4 9-9 9z"/>
<glyph unicode="&#112;" d="M383 165c-54 20-63 35-63 62 0 6 1 7 5 11 6 7 14 16 18 39 0 1 2 3 2 3 10 4 16 12 18 36 0 11-3 18-7 22 1 7 4 21 5 33 1 14-3 37-20 56-12 13-35 29-76 29-40 0-63-16-75-29-17-19-21-42-20-56 1-12 3-26 5-33-4-5-7-12-7-23 2-23 8-31 18-35l2-3c4-23 12-32 18-39 4-4 5-5 5-11 0-27-9-42-63-62-95-34-95-55-95-62l0-45c0-5 5-10 10-10 5 0 10 5 10 10l0 45c1 4 17 21 81 44 51 18 77 36 77 80 0 13-6 19-10 24-5 6-10 12-14 30-2 11-8 14-12 16-3 2-6 3-8 19 0 7 3 9 3 9 4 2 6 6 5 11 0 0-4 21-5 37-1 7 1 26 15 41 13 14 34 22 60 22 27 0 48-8 61-22 14-15 16-34 15-41-1-16-5-37-5-37-1-5 1-9 5-11 0 0 2-2 3-8-2-17-5-18-8-20-4-2-10-5-12-16-4-18-9-24-14-30-5-5-10-11-10-24 0-44 26-62 77-80 64-23 80-40 81-44l0-45c0-5 4-10 10-10 5 0 10 5 10 10l0 45c0 7 0 28-95 62z"/>
<glyph unicode="&#113;" d="M423 119c-4 7-10 17-16 33-7 22-6 47-6 71 0 5 0 11 0 16 1 66 1 141-87 169-6 2-9 9-13 20-5 15-12 35-41 36-28-1-36-21-41-36-4-11-6-18-13-20-88-28-88-103-87-169 0-5 0-11 0-16 0-24 1-49-6-71-5-16-12-26-16-33-4-6-8-12-5-19 4-7 11-7 30-7l2 0c14 0 31 0 49 0l24 0c10-32 35-53 63-53 1 0 3 0 3 0l3 0c10 0 19 4 27 10 13 9 24 25 30 43l24 0c18 0 35 0 49 0l2 0c19 0 26 0 30 7 3 7-1 13-5 19z m-142-53c-5-4-10-6-15-6l-3 0-1-10-2 9 0 0c-17 0-34 13-42 33l21 0c3 1 6 1 9 1l14 0 11 0c5 0 9 0 13-1l16 0c-5-11-12-20-21-26z m117 46l-2 0c-14 0-31 0-49 0l-89 0-85 0c-18 0-35 0-49 0l-2 0c-2 1-4 1-6 1 4 7 11 18 16 33 8 25 7 51 7 77 0 6-1 11-1 16 0 68 0 127 74 151 16 5 21 19 26 31 5 15 8 23 22 24 14-1 17-9 23-24 4-12 9-26 25-31 75-24 74-83 74-151 0-5 0-10 0-16-1-26-2-52 6-77 6-15 12-26 16-33-2 0-4 0-6-1z"/>
<glyph unicode="&#114;" d="M411 17c-2 0-4 1-5 2l-146 108-146-104c-3-3-8-3-11 0-4 3-5 7-4 11l56 161-146 96c-3 2-5 7-4 11 2 4 6 7 10 7l180 0 56 171c1 4 5 7 9 7 4 0 8-3 9-7l56-171 180 0c5 0 8-3 10-7 1-5-1-9-4-11l-146-96 56-165c1-4 0-9-4-11-1-1-3-2-6-2z m-151 132c2 0 4 0 6-1l126-94-48 142c-1 5 1 9 4 12l124 81-154 0c-4 0-8 3-9 7l-49 149-48-149c-2-4-6-7-10-7l-154 0 124-82c4-2 5-7 4-11l-48-139 126 91c2 1 4 1 6 1z"/>
<glyph unicode="&#115;" d="M431 423c-16 15-37 24-59 24-22 0-43-9-59-24l-60-61c-4-4-4-10 0-14 4-4 10-4 14 0l60 61c24 24 66 24 90 0 12-12 18-28 18-45 0-17-6-33-18-45l-88-88c-24-24-66-24-90 0-5 5-9 11-12 17-2 5-8 7-13 5-5-2-7-8-5-13 4-8 10-16 16-23 16-15 38-23 59-23 22 0 43 8 59 23l88 88c15 16 24 36 24 59 0 22-9 43-24 59z m-178-267l-60-61c-24-24-66-24-90 0-12 12-18 28-18 45 0 17 6 33 18 45l88 88c24 24 66 24 90 0 5-5 9-11 12-18 3-5 9-7 13-4 5 2 7 8 5 13-4 8-10 16-16 23-32 31-87 31-118 0l-88-88c-15-16-24-37-24-59 0-22 9-43 24-59 16-15 37-24 59-24 23 0 43 9 59 24l60 61c4 4 4 10 0 14-4 3-10 3-14 0z"/>
<glyph unicode="&#116;" d="M83 350l354 0c6 0 10 5 10 10 0 6-4 10-10 10l-354 0c-6 0-10-4-10-10 0-5 4-10 10-10z m354-78l-354 0c-6 0-10-5-10-10 0-6 4-10 10-10l354 0c6 0 10 4 10 10 0 5-4 10-10 10z m0-119l-354 0c-6 0-10-4-10-9 0-6 4-10 10-10l354 0c6 0 10 4 10 10 0 5-4 9-10 9z"/>
<glyph unicode="&#117;" d="M227 449l-155 0c-5 0-9-4-9-9l0-155c0-5 4-10 9-10l155 0c5 0 10 5 10 10l0 155c0 5-5 9-10 9z m-10-154l-135 0 0 135 135 0 0-135z m231 154l-155 0c-5 0-10-4-10-9l0-155c0-5 5-10 10-10l155 0c5 0 10 5 10 10l0 155c0 5-5 9-10 9z m-10-154l-135 0 0 135 135 0z m-211-66l-155 0c-5 0-9-5-9-10l0-155c0-5 4-10 9-10l155 0c5 0 10 5 10 10l0 155c0 5-5 10-10 10z m-10-155l-135 0 0 135 135 0 0-135z m231 155l-155 0c-5 0-10-5-10-10l0-155c0-5 5-10 10-10l155 0c5 0 10 5 10 10l0 155c0 5-5 10-10 10z m-10-155l-135 0 0 135 135 0z"/>
<glyph unicode="&#118;" d="M468 263l-98 98c-4 4-10 4-14 0-4-3-4-10 0-13l82-82-215 0c-6 0-10-4-10-10 0-5 4-10 10-10l215 0-82-81c-4-4-4-10 0-14 2-2 5-3 7-3 3 0 5 1 7 3l98 98c2 2 3 5 3 7 0 3-1 5-3 7z m-200 60c0-5 4-10 10-10 5 0 9 5 9 10l0 99c0 5-4 9-9 9l-219 0c-6 0-10-4-10-9l0-340c0-5 4-10 10-10 5 0 9 5 9 10l0 330 200 0z m10-121c-6 0-10-5-10-10l0-110c0-5 4-10 10-10 5 0 9 5 9 10l0 110c0 5-4 10-9 10z"/>
<glyph unicode="&#119;" d="M445 446l-173 0c-5 0-9-4-9-10 0-5 4-9 9-9l149 0-139-139c-3-4-3-10 0-14 2-2 5-3 7-3 3 0 5 1 7 3l139 139 0-149c0-5 4-10 10-10 5 0 9 5 9 10l0 172c0 6-4 10-9 10z m-197-369l-149 0 139 139c4 3 4 10 0 14-4 3-10 3-14 0l-139-139 0 149c0 5-4 9-9 9-6 0-10-4-10-9l0-173c0-5 4-9 10-9l172 0c5 0 10 4 10 9 0 6-5 10-10 10z"/>
<glyph unicode="&#79;" d="M403 395c-38 38-89 59-143 59-54 0-105-21-143-59-79-79-79-207 0-286 38-38 89-59 143-59 54 0 105 21 143 59 79 79 79 207 0 286z m-14-272c-34-34-80-53-129-53-49 0-94 19-129 53-71 71-71 187 0 258 35 34 80 53 129 53 49 0 95-19 129-53 71-71 71-187 0-258z m-78 129c0-28-23-51-51-51-28 0-51 23-51 51 0 28 23 51 51 51 28 0 51-23 51-51z"/>
<glyph unicode="&#121;" d="M418 297l-30 0 0 41c0 67-59 124-128 124-69 0-128-57-128-124l0-41-29 0c-6 0-10-4-10-9l0-237c0-5 4-10 10-10l315 0c5 0 9 5 9 10l0 237c0 5-4 9-9 9z m-266 41c0 57 49 105 108 105 59 0 108-48 108-105l0-41-216 0z m256-277l-296 0 0 217 296 0z m-158 88l0-29c0-5 5-10 10-10 5 0 10 5 10 10l0 29c16 4 27 19 27 36 0 20-16 37-37 37-21 0-37-17-37-37 0-17 11-32 27-36z m10 53c10 0 18-8 18-17 0-10-8-18-18-18-10 0-18 8-18 18 0 9 8 17 18 17z"/>
<glyph unicode="&#122;" d="M486 391c0 1 0 1 0 2 0 1-1 1-1 2 0 0 0 1-1 1 0 0 0 0 0 0-1 1-1 1-2 2 0 0-1 0-1 1-1 0-1 0-2 0-1 0-1 0-2 1 0 0 0 0 0 0l-434 0c0 0 0 0 0 0-1-1-1-1-2-1-1 0-1 0-2 0 0-1-1-1-1-1-1-1-1-1-2-2 0 0 0 0 0 0 0 0-1-1-1-1 0-1 0-1-1-2 0-1 0-1 0-2 0 0 0-1 0-1l0-276c0-5 4-10 9-10l434 0c5 0 10 5 10 10l0 276c0 0-1 1-1 1z m-37-11l-189-155-189 155z m-396-256l0 245 201-164c2-2 4-2 6-2 2 0 4 0 6 2l201 164 0-245z"/>
<glyph unicode="&#120;" d="M274 252l155 155c4 4 4 10 0 14-4 4-10 4-14 0l-155-155-155 155c-4 4-10 4-14 0-4-4-4-10 0-14l155-155-155-155c-4-4-4-10 0-14 2-2 4-3 7-3 2 0 5 1 7 3l155 155 155-155c2-2 5-3 7-3 3 0 5 1 7 3 4 4 4 10 0 14z"/>
<glyph unicode="&#66;" d="M435 402l-73 0 0 28c0 5-4 10-10 10-5 0-9-5-9-10l0-28-165 0 0 28c0 5-5 10-10 10-6 0-10-5-10-10l0-28-72 0c-6 0-10-5-10-10l0-318c0-5 4-10 10-10l349 0c5 0 9 5 9 10l0 318c0 5-4 10-9 10z m-277-20l0-28c0-5 4-10 10-10 5 0 10 5 10 10l0 28 165 0 0-28c0-5 4-10 9-10 6 0 10 5 10 10l0 28 63 0 0-56c0 0 0 0-1 0l-328 0c0 0 0 0-1 0l0 56z m-63-298l0 223c1 0 1 0 1 0l328 0c1 0 1 0 1 0l0-45c0 0-1 0-1 0l-267 0c-5 0-9-4-9-10 0-5 4-10 9-10l267 0c1 0 1 0 1 0l0-33c0 0-1 0-1 0l-267 0c-5 0-9-4-9-10 0-5 4-10 9-10l267 0c1 0 1 0 1 0l0-105-330 0z m205 72l-143 0c-5 0-9-4-9-10 0-5 4-9 9-9l143 0c5 0 9 4 9 9 0 6-4 10-9 10z"/>
<glyph unicode="&#67;" d="M454 313c-4 4-10 4-14 0l-218-218c-32-32-84-32-115 0-32 32-32 84 0 116l206 206c0 0 0 0 0 0 21 21 55 21 75 0 10-10 16-23 16-38 0-14-6-27-16-37l-206-207c-10-9-25-9-35 0-10 10-10 26 0 35l122 123c4 4 4 10 0 14-4 3-10 3-14 0l-122-123c-17-17-17-45 0-63 9-8 20-12 31-12 12 0 23 4 32 12l206 207c14 14 22 32 22 51 0 20-8 38-22 52-28 28-74 28-103 0l-206-207c-40-39-40-103 0-143 19-20 45-29 71-29 26 0 52 9 72 29l218 218c4 4 4 11 0 14z"/>
<glyph unicode="&#68;" d="M260 149c-2 0-5 1-7 3l-186 186c-4 4-4 10 0 14 4 4 10 4 14 0l179-179 179 179c4 4 10 4 14 0 4-4 4-10 0-14l-186-186c-2-2-4-3-7-3z"/>
<glyph unicode="&#69;" d="M453 166l-186 186c-4 4-10 4-14 0l-186-186c-4-4-4-10 0-14 4-4 10-4 14 0l179 179 179-179c2-2 5-3 7-3 3 0 5 1 7 3 4 4 4 10 0 14z"/>
<glyph unicode="&#88;" d="M288 252l148 148c8 8 8 20 0 28-8 8-20 8-28 0l-148-148-148 148c-8 8-20 8-28 0-8-8-8-20 0-28l148-148-148-148c-8-8-8-20 0-28 4-4 9-6 14-6 5 0 10 2 14 6l148 148 148-148c4-4 9-6 14-6 5 0 10 2 14 6 8 8 8 20 0 28z"/>
<glyph unicode="&#71;" d="M403 395c-38 38-89 59-143 59-54 0-105-21-143-59-79-79-79-207 0-286 38-38 89-59 143-59 54 0 105 21 143 59 79 79 79 207 0 286z m-14-272c-34-34-80-53-129-53-49 0-94 19-129 53-71 71-71 187 0 258 35 34 80 53 129 53 49 0 95-19 129-53 71-71 71-187 0-258z m-45 227l-217-88c-4-2-7-6-6-11 0-4 4-8 9-8l109-12 11-109c1-4 4-8 9-9 0 0 1 0 1 0 4 0 8 3 9 6l88 218c1 3 1 8-2 10-3 3-7 4-11 3z m-78-187l-9 78c0 5-4 8-8 9l-78 8 159 65z"/>
<glyph unicode="&#72;" d="M260 449c-109 0-197-88-197-197 0-109 88-197 197-197 109 0 197 88 197 197 0 109-88 197-197 197z m0-374c-98 0-177 79-177 177 0 98 79 177 177 177 98 0 177-79 177-177 0-98-79-177-177-177z m-6 176l76 69c4 4 5 10 1 14-3 4-10 4-14 1l-84-76c0 0-1-1-1-2-1 0-1-1-1-1 0-1 0-2-1-3 0 0 0 0 0-1 0 0 0-1 0-2 1 0 1-1 1-1 0-1 0-1 1-2 0 0 0-1 1-2l89-100c2-2 4-3 7-3 2 0 5 1 7 2 4 4 4 10 0 14z"/>
<glyph unicode="&#73;" d="M267 260c-31 31-72 50-108 50-23 0-42-7-56-21-31-32-43-59-34-81 15-35 79-42 104-43 1-21 6-71 29-94 8-9 18-13 30-13 0 0 0 0 0 0 19 0 40 12 65 37 19 19 25 47 19 78-6 31-23 61-49 87z m16-151c-26-26-42-31-51-31-32 0-39 70-39 97 0 5-5 10-10 10-32 0-86 8-96 31-5 13 5 34 30 59 10 10 25 16 42 16 31 0 66-17 95-45 22-23 38-50 43-77 5-25 0-46-14-60z m-113 223c18 0 38 10 54 27 27 26 35 61 17 78-16 17-52 9-78-17-16-17-26-37-26-54 0-10 3-18 9-24 6-7 15-10 24-10z m7 74c13 13 28 20 40 20 5 0 8-1 11-3 7-8 2-31-17-50-13-13-29-21-41-21-4 0-8 1-10 3-2 3-3 6-3 11 0 12 8 27 20 40z m82-82c6-6 15-9 24-9 18 0 38 10 54 26 27 27 35 61 18 78-17 17-53 9-79-17-16-16-26-36-26-54 0-9 3-18 9-24z m31 64c13 13 28 21 40 21 5 0 8-1 11-4 7-7 2-30-17-50-13-13-29-20-41-20-4 0-8 1-10 3-2 2-3 6-3 10 0 12 8 28 20 40z m155-154c-17 16-53 8-79-17-26-27-34-62-17-79 7-6 15-9 25-9 17 0 37 10 54 26 16 17 26 37 26 54 0 10-3 19-9 25z m-31-65c-13-12-28-20-40-20-5 0-8 1-11 3-7 8-2 31 17 51 13 12 28 20 40 20 5 0 9-1 11-3 2-3 3-6 3-11 0-12-8-27-20-40z m-3 99c27 26 34 61 17 78-17 17-52 9-78-17-27-27-35-61-17-78 6-6 14-10 24-10 17 0 37 10 54 27z m-47 47c12 13 28 21 40 21 4 0 8-2 10-4 8-8 2-31-17-50-13-13-28-21-40-21-5 0-8 1-10 4-8 7-3 30 17 50z"/>
<glyph unicode="&#74;" d="M394 138c-26-21-57-32-89-32-65 0-120 45-138 106l158 0c5 0 10 4 10 10 0 5-5 10-10 10l-162 0c0 6-1 13-1 20 0 9 1 18 2 27l161 0c5 0 10 5 10 10 0 6-5 10-10 10l-155 0c19 57 72 99 135 99 32 0 63-11 89-32 4-4 10-3 14 1 3 4 3 11-2 14-29 24-64 36-101 36-74 0-136-50-156-118l-29 0c-5 0-10-4-10-10 0-5 5-10 10-10l25 0c-2-9-3-18-3-27 0-7 1-14 2-20l-24 0c-5 0-10-5-10-10 0-6 5-10 10-10l27 0c18-72 82-126 158-126 37 0 72 13 101 37 5 3 5 10 2 14-4 4-10 5-14 1z"/>
<glyph unicode="&#75;" d="M455 354l-113 0c0 0 0 0 0 1l0 51c0 5-5 10-10 10l-144 0c-5 0-10-5-10-10l0-51c0-1 0-1 0-1l-113 0c-5 0-10-4-10-10l0-246c0-6 5-10 10-10l390 0c6 0 10 4 10 10l0 246c0 6-4 10-10 10z m-51-246l-288 0c0 0 0 0 0 0l0 226c0 0 0 0 0 0l288 0c0 0 0 0 0 0l0-226c0 0 0 0 0 0z m-206 247l0 41 124 0 0-41c0-1 0-1 0-1l-124 0c0 0 0 0 0 1z m-123-21l21 0c0 0 0 0 0 0l0-226c0 0 0 0 0 0l-21 0z m370-226l-21 0c0 0 0 0 0 0l0 226c0 0 0 0 0 0l21 0z"/>
<glyph unicode="&#76;" d="M446 139c-5 0-10 2-14 6l-172 172-172-172c-8-8-20-8-28 0-8 8-8 20 0 28l186 186c8 8 20 8 28 0l186-186c8-8 8-20 0-28-4-4-9-6-14-6z"/>
<glyph unicode="&#77;" d="M260 139c-5 0-10 2-14 6l-186 186c-8 8-8 20 0 28 8 8 20 8 28 0l172-172 172 172c8 8 20 8 28 0 8-8 8-20 0-28l-186-186c-4-4-9-6-14-6z"/>
<glyph unicode="&#97;" d="M288 448c-110 11-205-68-217-175-11-108 67-205 175-217 7-1 14-1 21-1 101 0 185 76 196 176 11 108-67 205-175 217z m155-215c-10-96-96-168-195-157-97 10-167 97-157 195 10 90 85 158 176 158 6 0 13 0 19-1 97-10 168-98 157-195z m-86 112c-4 2-10 1-13-4l-103-163-59 67c-3 4-10 4-14 1-4-4-4-10-1-14l68-77c0-1 1-1 1-1 0 0 1-1 1-1 0 0 1 0 1 0 1-1 3-2 4-2 2 0 3 1 5 1 0 1 0 1 1 1 0 0 1 0 1 1 0 0 1 1 1 1 0 1 1 1 1 1l109 175c3 5 2 11-3 14z"/>
<glyph unicode="&#99;" d="M437 439l-354 0c-27 0-49-22-49-49l0-197c0-27 22-49 49-49l189 0 0-93c0-4 3-8 7-9 1-1 2-1 3-1 3 0 6 1 8 3l87 100 60 0c27 0 50 22 50 49l0 197c0 27-23 49-50 49z m30-246c0-16-13-30-30-30l-65 0c-3 0-5-1-7-3l-73-83 0 76c0 6-4 10-10 10l-199 0c-16 0-30 14-30 30l0 197c0 16 14 29 30 29l354 0c17 0 30-13 30-29z"/>
<glyph unicode="&#100;" d="M473 94l-100 100c-4 4-10 4-14 0l-12-12-33 32c54 61 52 155-7 214-29 29-68 45-110 45-42 0-81-16-110-46-61-60-61-159 0-220 29-29 68-46 110-46 38 0 75 14 103 39l33-32-13-13c-3-3-3-10 0-14l101-100c2-2 4-3 7-3 2 0 5 1 7 3l38 39c2 2 3 4 3 7 0 2-1 5-3 7z m-372 127c-53 53-53 139 0 193 26 25 60 39 96 39 37 0 71-14 96-39 54-54 54-140 0-193-25-26-59-40-96-40-36 0-70 14-96 40z m327-159l-87 86 25 25 86-86z"/>
<glyph unicode="&#101;" d="M449 370l-50 0 0 50c0 5-3 8-8 8-4 0-8-3-8-8l0-50-49 0c-5 0-8-3-8-8 0-4 3-8 8-8l49 0 0-49c0-5 4-8 8-8 5 0 8 3 8 8l0 49 50 0c5 0 8 4 8 8 0 5-3 8-8 8z m-135-164c-3 3-8 3-11 0l-10-10-27 26c44 50 42 126-5 173-24 24-56 37-90 37-33 0-65-13-89-37-50-49-50-129 0-179 24-24 56-37 89-37 31 0 61 11 84 32l27-27-10-10c-4-3-4-8 0-11l81-81c1-2 4-3 6-3 2 0 4 1 5 3l32 31c1 1 2 3 2 6 0 2-1 4-2 5z m-221 22c-43 43-43 113 0 156 21 21 49 32 78 32 30 0 58-11 79-32 43-43 43-113 0-156-21-21-49-33-79-33-29 0-57 12-78 33z m266-129l-70 70 20 20 70-70z"/>
<glyph unicode="&#65;" d="M292 274l172 0c6 0 10 5 10 10 0 5-4 10-10 10l-148 0 138 138c4 4 4 10 0 14-2 2-4 3-7 3-2 0-5-1-7-3l-138-138 0 148c0 6-4 10-10 10-5 0-10-4-10-10l0-172c0-5 5-10 10-10z m-236-64l148 0-138-138c-4-4-4-10 0-14 4-4 10-4 14 0l138 138 0-148c0-6 5-10 10-10 5 0 10 4 10 10l0 172c0 5-5 10-10 10l-172 0c-5 0-10-5-10-10 0-5 5-10 10-10z"/>
<glyph unicode="&#70;" d="M508 261l-97 97c-4 4-11 4-14 0-4-4-4-10 0-14l80-80-256 0c-5 0-10-5-10-10 0-6 5-10 10-10l256 0-80-80c-4-4-4-10 0-14 2-2 4-3 7-3 2 0 5 1 7 3l97 97c2 2 3 4 3 7 0 2-1 5-3 7z m-193-73c-5 0-10-5-10-10l0-54-256 0 0 259 256 0 0-57c0-6 5-10 10-10 5 0 10 4 10 10l0 67c0 5-5 10-10 10l-276 0c-5 0-9-5-9-10l0-279c0-5 4-9 9-9l276 0c5 0 10 4 10 9l0 64c0 5-5 10-10 10z"/>
<glyph unicode="&#78;" d="M469 469c-4 4-10 3-13-1l-68-75c-13 18-33 34-63 43-7 2-9 9-13 20-6 15-13 35-42 36-28-1-35-21-40-36-4-11-7-18-13-20-89-28-88-103-88-169 0-5 1-11 1-16 0-24 1-49-6-71-6-16-12-26-17-33-4-6-7-12-4-19 4-7 11-7 30-7l2 0c3 0 7 0 10 0l-74-83c-3-4-3-10 1-14 2-2 4-3 7-3 2 0 5 2 7 4l86 96c4 0 8 0 12 0l24 0c10-32 35-53 63-53 1 0 2 0 3 0l3 0c10 0 19 4 27 10 13 9 24 25 29 43l25 0c17 0 35 0 49 0l2 0c19 0 26 0 29 7 4 7 0 13-4 19-4 7-11 17-16 33-7 22-7 47-6 71 0 5 0 11 0 16 0 36 1 75-14 108l72 80c4 4 3 11-1 14z m-334-328l-2 0c-2 0-4 0-6 0 4 7 10 18 15 33 8 25 8 51 7 77 0 6 0 11 0 16 0 68-1 127 74 151 16 5 21 19 25 31 6 15 9 23 22 24 15-1 18-9 23-24 5-12 10-26 26-31 28-9 45-23 56-40l-212-238c-10 0-20 0-28 1z m157-47c-5-4-10-6-15-6l-6-1 0 0c-18 0-34 13-42 33l20 0c3 1 6 1 9 1l15 0 11 0c4 0 8 0 13-1l16 0c-5-11-12-20-21-26z m100 173c0-5 0-10 0-16 0-26-1-52 7-77 5-15 11-26 16-33-2 0-4 0-6 0l-2 0c-14-1-32-1-49-1l-89 0-80 0 195 219c9-26 9-58 8-92z"/>
<glyph unicode="&#80;" d="M33 336l242 0c4 0 7 3 7 7 0 4-3 7-7 7l-242 0c-4 0-7-3-7-7 0-4 3-7 7-7z m256-43l-256 0c-4 0-7-3-7-7 0-4 3-7 7-7l256 0c4 0 7 3 7 7 0 4-3 7-7 7z m-256-71l199 0c4 0 7 3 7 7 0 4-3 8-7 8l-199 0c-4 0-7-4-7-8 0-4 3-7 7-7z m213-42l-213 0c-4 0-7-4-7-7 0-4 3-8 7-8l213 0c4 0 7 4 7 8 0 3-3 7-7 7z m226 109c-1 3-4 4-7 4l-99 0c-3 0-6-1-7-4-1-3 0-6 2-8l50-49c1-2 3-2 5-2 1 0 3 0 5 2l49 49c2 2 3 5 2 8z"/>
<glyph unicode="&#82;" d="M411 17c-2 0-4 1-5 2l-146 108-146-104c-3-3-8-3-11 0-4 3-5 7-4 11l56 161-146 96c-3 2-5 7-4 11 2 4 6 7 10 7l180 0 56 171c1 4 5 7 9 7 4 0 8-3 9-7l56-171 180 0c5 0 8-3 10-7 1-5-1-9-4-11l-146-96 56-165c1-4 0-9-4-11-1-1-3-2-6-2z"/>
<glyph unicode="&#83;" d="M448 440c17-13 22-39 9-57l-207-302c-13-18-37-22-54-9-17 13-137 147-137 147-15 16-15 42 1 58 16 16 40 15 55-2l99-107 180 263c13 18 37 22 54 9z"/>
<glyph unicode="&#84;" d="M227 182c-2-2-6-4-9-4-3 0-7 2-9 4l-56 56 18 18 47-47 125 126 17-18z"/>
</font>
</defs>
</svg>
